<?xml version="1.0" encoding="UTF-8" standalone="no"?>
<!DOCTYPE svg PUBLIC "-//W3C//DTD SVG 1.1//EN" "http://www.w3.org/Graphics/SVG/1.1/DTD/svg11.dtd">
<svg width="100%" height="100%" viewBox="0 0 46 46" version="1.1" xmlns="http://www.w3.org/2000/svg" xmlns:xlink="http://www.w3.org/1999/xlink" xml:space="preserve" xmlns:serif="http://www.serif.com/" style="fill-rule:evenodd;clip-rule:evenodd;stroke-linejoin:round;stroke-miterlimit:2;">
    <path d="M26.048,23.004L34.584,14.469C34.969,14.067 35.184,13.532 35.184,12.976C35.184,11.792 34.21,10.817 33.026,10.817C32.472,10.817 31.938,11.031 31.537,11.414L23,19.949L14.465,11.414C14.06,11.009 13.51,10.781 12.938,10.781C11.752,10.781 10.776,11.757 10.776,12.942C10.776,13.515 11.005,14.066 11.41,14.471L19.945,23.006L11.41,31.541C11.005,31.946 10.777,32.496 10.777,33.068C10.777,34.253 11.752,35.229 12.937,35.229C13.51,35.229 14.06,35.001 14.465,34.596L23,26.059L31.535,34.594C31.94,34.999 32.49,35.227 33.063,35.227C34.248,35.227 35.223,34.251 35.223,33.066C35.223,32.494 34.995,31.944 34.59,31.539L26.049,23.004L26.048,23.004Z" style="fill:rgb(52,120,245);fill-rule:nonzero;"/>
</svg>
