<?xml version="1.0" encoding="UTF-8" standalone="no"?>
<!DOCTYPE svg PUBLIC "-//W3C//DTD SVG 1.1//EN" "http://www.w3.org/Graphics/SVG/1.1/DTD/svg11.dtd">
<svg width="100%" height="100%" viewBox="0 0 46 46" version="1.1" xmlns="http://www.w3.org/2000/svg" xmlns:xlink="http://www.w3.org/1999/xlink" xml:space="preserve" xmlns:serif="http://www.serif.com/" style="fill-rule:evenodd;clip-rule:evenodd;stroke-linejoin:round;stroke-miterlimit:2;">
    <path d="M35.399,43.125C35.097,43.126 34.801,43.033 34.556,42.857L23,34.481L11.444,42.857C11.199,43.034 10.905,43.129 10.603,43.129C9.814,43.129 9.165,42.48 9.165,41.691C9.165,41.536 9.191,41.381 9.24,41.233L13.744,27.884L2.066,19.876C1.673,19.608 1.438,19.163 1.438,18.687C1.438,17.899 2.086,17.25 2.875,17.25L17.285,17.25L21.632,3.87C21.823,3.278 22.377,2.875 22.999,2.875C23.621,2.875 24.175,3.278 24.367,3.87L28.717,17.256L43.125,17.256C43.125,17.256 43.126,17.256 43.126,17.256C43.915,17.256 44.563,17.905 44.563,18.693C44.563,19.167 44.329,19.612 43.938,19.88L32.254,27.884L36.758,41.229C36.808,41.378 36.833,41.533 36.833,41.689C36.833,42.478 36.185,43.126 35.397,43.127L35.399,43.125Z" style="fill:rgb(52,120,245);fill-rule:nonzero;"/>
</svg>
