<?xml version="1.0" encoding="UTF-8" standalone="no"?>
<!DOCTYPE svg PUBLIC "-//W3C//DTD SVG 1.1//EN" "http://www.w3.org/Graphics/SVG/1.1/DTD/svg11.dtd">
<svg width="100%" height="100%" viewBox="0 0 46 46" version="1.1" xmlns="http://www.w3.org/2000/svg" xmlns:xlink="http://www.w3.org/1999/xlink" xml:space="preserve" xmlns:serif="http://www.serif.com/" style="fill-rule:evenodd;clip-rule:evenodd;stroke-linejoin:round;stroke-miterlimit:2;">
    <path d="M38.813,8.625L30.188,8.625L30.188,6.469C30.188,4.497 28.565,2.875 26.594,2.875L19.406,2.875C17.435,2.875 15.813,4.497 15.813,6.469L15.813,8.625L7.188,8.625C6.399,8.625 5.75,9.274 5.75,10.063C5.75,10.851 6.399,11.5 7.188,11.5L8.715,11.5L10.421,38.895C10.549,41.308 12.399,43.125 14.733,43.125L31.265,43.125C33.613,43.125 35.424,41.348 35.577,38.903L37.285,11.5L38.813,11.5C39.601,11.5 40.25,10.851 40.25,10.063C40.25,9.274 39.601,8.625 38.813,8.625ZM17.302,37.375L17.25,37.375C16.481,37.375 15.84,36.758 15.813,35.989L15.094,15.864C15.093,15.847 15.093,15.83 15.093,15.813C15.093,15.023 15.742,14.374 16.531,14.374C17.301,14.374 17.941,14.992 17.969,15.761L18.688,35.886C18.688,35.903 18.688,35.921 18.688,35.938C18.688,36.708 18.071,37.348 17.302,37.375ZM24.438,35.938C24.438,36.726 23.789,37.375 23,37.375C22.211,37.375 21.563,36.726 21.563,35.938L21.563,15.813C21.563,15.024 22.211,14.375 23,14.375C23.789,14.375 24.438,15.024 24.438,15.813L24.438,35.938ZM27.313,8.625L18.688,8.625L18.688,6.469C18.687,6.466 18.687,6.462 18.687,6.459C18.687,6.07 19.008,5.75 19.397,5.75C19.4,5.75 19.403,5.75 19.406,5.75L26.594,5.75C26.596,5.75 26.599,5.75 26.601,5.75C26.992,5.75 27.313,6.071 27.313,6.461C27.313,6.464 27.313,6.466 27.313,6.469L27.313,8.625ZM30.188,35.989C30.16,36.758 29.519,37.375 28.75,37.375L28.698,37.375C27.929,37.348 27.312,36.708 27.312,35.938C27.312,35.921 27.312,35.903 27.312,35.886L28.031,15.761C28.059,14.992 28.699,14.374 29.469,14.374C30.258,14.374 30.907,15.023 30.907,15.813C30.907,15.83 30.907,15.847 30.906,15.864L30.188,35.989Z" style="fill:rgb(255,64,19);fill-rule:nonzero;"/>
</svg>
