<?xml version="1.0" encoding="UTF-8" standalone="no"?>
<!DOCTYPE svg PUBLIC "-//W3C//DTD SVG 1.1//EN" "http://www.w3.org/Graphics/SVG/1.1/DTD/svg11.dtd">
<svg width="100%" height="100%" viewBox="0 0 46 46" version="1.1" xmlns="http://www.w3.org/2000/svg" xmlns:xlink="http://www.w3.org/1999/xlink" xml:space="preserve" xmlns:serif="http://www.serif.com/" style="fill-rule:evenodd;clip-rule:evenodd;stroke-linecap:round;stroke-linejoin:round;">
    <path d="M10.063,10.063L11.86,38.813C11.945,40.474 13.154,41.688 14.735,41.688L31.267,41.688C32.854,41.688 34.04,40.474 34.142,38.813L35.938,10.063" style="fill:none;fill-rule:nonzero;stroke:rgb(255,64,19);stroke-width:2.88px;"/>
    <path d="M7.188,10.063L38.813,10.063" style="fill:none;fill-rule:nonzero;stroke:rgb(255,64,19);stroke-width:2.88px;"/>
    <path d="M17.25,10.063L17.25,6.469C17.25,6.467 17.25,6.465 17.25,6.463C17.25,5.283 18.221,4.312 19.4,4.312C19.402,4.312 19.404,4.312 19.406,4.313L26.594,4.313C26.596,4.312 26.599,4.312 26.601,4.312C27.78,4.312 28.75,5.282 28.75,6.461C28.75,6.464 28.75,6.466 28.75,6.469L28.75,10.063" style="fill:none;fill-rule:nonzero;stroke:rgb(255,64,19);stroke-width:2.88px;"/>
    <path d="M23,15.813L23,35.938" style="fill:none;fill-rule:nonzero;stroke:rgb(255,64,19);stroke-width:2.88px;"/>
    <path d="M16.531,15.813L17.25,35.938" style="fill:none;fill-rule:nonzero;stroke:rgb(255,64,19);stroke-width:2.88px;"/>
    <path d="M29.469,15.813L28.75,35.938" style="fill:none;fill-rule:nonzero;stroke:rgb(255,64,19);stroke-width:2.88px;"/>
</svg>
